<svg width="47" height="47" viewBox="0 0 47 47" fill="none" xmlns="http://www.w3.org/2000/svg">
<rect width="47" height="47" rx="23.5" fill="black"/>
<path d="M38.0483 21.8779V24.0278C38.0483 24.9132 37.9487 25.6797 37.7495 26.3271C37.5558 26.9746 37.2736 27.5086 36.9028 27.9292C36.5376 28.3498 36.1004 28.6624 35.5913 28.8672C35.0877 29.0664 34.5288 29.166 33.9146 29.166C33.422 29.166 32.9627 29.1024 32.5366 28.9751C32.1105 28.8478 31.7259 28.6514 31.3828 28.3857C31.0452 28.1146 30.7547 27.777 30.5112 27.373C30.2677 26.9691 30.0796 26.4876 29.9468 25.9287C29.8195 25.3698 29.7559 24.7362 29.7559 24.0278V21.8779C29.7559 20.9814 29.8527 20.2122 30.0464 19.5703C30.2456 18.9284 30.5306 18.3971 30.9014 17.9766C31.2721 17.556 31.7093 17.2461 32.2129 17.0469C32.722 16.8477 33.2837 16.748 33.8979 16.748C34.3905 16.748 34.847 16.8117 35.2676 16.939C35.6937 17.0662 36.0783 17.2627 36.4214 17.5283C36.7645 17.7939 37.055 18.1287 37.293 18.5327C37.5365 18.9367 37.7218 19.4181 37.8491 19.9771C37.9819 20.5304 38.0483 21.1641 38.0483 21.8779ZM35.4585 24.3516V21.5376C35.4585 21.1226 35.4336 20.7629 35.3838 20.4585C35.3395 20.1486 35.2731 19.8857 35.1846 19.6699C35.1016 19.4541 34.9964 19.2798 34.8691 19.147C34.7419 19.0142 34.5952 18.9173 34.4292 18.8564C34.2687 18.79 34.0916 18.7568 33.8979 18.7568C33.6545 18.7568 33.4359 18.8066 33.2422 18.9062C33.0485 19.0059 32.8853 19.1636 32.7524 19.3794C32.6196 19.5897 32.5173 19.8747 32.4453 20.2344C32.3789 20.5885 32.3457 21.0229 32.3457 21.5376V24.3516C32.3457 24.7666 32.3678 25.1291 32.4121 25.439C32.4619 25.7489 32.5283 26.0145 32.6113 26.2358C32.6999 26.4517 32.8078 26.6287 32.9351 26.7671C33.0623 26.8999 33.209 26.9967 33.375 27.0576C33.541 27.1185 33.7209 27.1489 33.9146 27.1489C34.158 27.1489 34.3739 27.1019 34.562 27.0078C34.7502 26.9082 34.9106 26.7505 35.0435 26.5347C35.1818 26.3133 35.2842 26.0228 35.3506 25.6631C35.4225 25.3034 35.4585 24.8662 35.4585 24.3516Z" fill="#FF4C5B"/>
<path d="M26.0225 16.7646H26.4209V18.8232H26.2715C25.6904 18.8232 25.1592 18.9062 24.6777 19.0723C24.2018 19.2383 23.7896 19.4845 23.4409 19.811C23.0923 20.132 22.8239 20.5304 22.6357 21.0063C22.4531 21.4767 22.3618 22.019 22.3618 22.6333V24.6919C22.3618 25.1069 22.3978 25.4694 22.4697 25.7793C22.5472 26.0837 22.6579 26.3382 22.8018 26.543C22.9512 26.7422 23.131 26.8944 23.3413 26.9995C23.5516 27.0991 23.7896 27.1489 24.0552 27.1489C24.2931 27.1489 24.5117 27.0964 24.7109 26.9912C24.9102 26.8861 25.0817 26.7367 25.2256 26.543C25.3695 26.3493 25.4801 26.1252 25.5576 25.8706C25.6351 25.6105 25.6738 25.3283 25.6738 25.0239C25.6738 24.703 25.6323 24.4124 25.5493 24.1523C25.4718 23.8867 25.3584 23.6598 25.209 23.4717C25.0651 23.2835 24.888 23.1396 24.6777 23.04C24.4674 22.9349 24.235 22.8823 23.9805 22.8823C23.6152 22.8823 23.2998 22.9653 23.0342 23.1313C22.7686 23.2974 22.5638 23.5104 22.4199 23.7705C22.276 24.0306 22.2013 24.2962 22.1958 24.5674L21.5068 23.9946C21.5068 23.6183 21.5815 23.2476 21.731 22.8823C21.8859 22.5116 22.1045 22.1768 22.3867 21.8779C22.6689 21.5736 23.0148 21.3328 23.4243 21.1558C23.8394 20.9731 24.3125 20.8818 24.8438 20.8818C25.4027 20.8818 25.8952 20.9897 26.3213 21.2056C26.7474 21.4159 27.1043 21.7091 27.3921 22.0854C27.6854 22.4618 27.904 22.9017 28.0479 23.4053C28.1973 23.9033 28.272 24.4373 28.272 25.0073C28.272 25.5939 28.1696 26.1418 27.9648 26.6509C27.7656 27.1545 27.4834 27.5944 27.1182 27.9707C26.7529 28.347 26.3158 28.6403 25.8066 28.8506C25.3031 29.0609 24.7414 29.166 24.1216 29.166C23.4797 29.166 22.8931 29.0526 22.3618 28.8257C21.8361 28.5988 21.3768 28.2751 20.9839 27.8545C20.5965 27.4284 20.2949 26.9193 20.0791 26.3271C19.8688 25.735 19.7637 25.071 19.7637 24.335V23.3638C19.7637 22.3566 19.9186 21.4491 20.2285 20.6411C20.5439 19.8332 20.9811 19.1414 21.54 18.5659C22.1045 17.9849 22.7686 17.5394 23.5322 17.2295C24.2959 16.9196 25.126 16.7646 26.0225 16.7646Z" fill="#FF8C1A"/>
<path d="M12.2871 21.853H13.6069C13.9832 21.853 14.2931 21.7866 14.5366 21.6538C14.7856 21.521 14.9683 21.3328 15.0845 21.0894C15.2062 20.8459 15.2671 20.5609 15.2671 20.2344C15.2671 19.9521 15.2118 19.7004 15.1011 19.479C14.9904 19.2576 14.8216 19.0833 14.5947 18.9561C14.3734 18.8232 14.0856 18.7568 13.7314 18.7568C13.4769 18.7568 13.2334 18.8094 13.001 18.9146C12.7741 19.0142 12.5887 19.1608 12.4448 19.3545C12.3009 19.5426 12.229 19.7695 12.229 20.0352H9.63086C9.63086 19.36 9.81348 18.7762 10.1787 18.2837C10.5495 17.7912 11.0392 17.4121 11.6479 17.1465C12.2622 16.8753 12.9318 16.7397 13.6567 16.7397C14.4924 16.7397 15.2256 16.8726 15.8564 17.1382C16.4928 17.3983 16.9854 17.7856 17.334 18.3003C17.6882 18.8094 17.8652 19.4403 17.8652 20.1929C17.8652 20.5858 17.7712 20.9648 17.583 21.3301C17.4004 21.6898 17.1375 22.0107 16.7944 22.293C16.4569 22.5697 16.0529 22.791 15.5825 22.957C15.1177 23.1175 14.6003 23.1978 14.0303 23.1978H12.2871V21.853ZM12.2871 23.8037V22.4839H14.0303C14.6611 22.4839 15.2256 22.5558 15.7236 22.6997C16.2217 22.8436 16.645 23.0511 16.9937 23.3223C17.3423 23.5934 17.6079 23.9227 17.7905 24.3101C17.9731 24.6974 18.0645 25.1291 18.0645 25.605C18.0645 26.1694 17.9538 26.673 17.7324 27.1157C17.5111 27.5584 17.2012 27.932 16.8027 28.2363C16.4043 28.5407 15.9367 28.7731 15.3999 28.9336C14.8631 29.0885 14.2821 29.166 13.6567 29.166C13.1532 29.166 12.6523 29.0968 12.1543 28.9585C11.6562 28.8201 11.2052 28.6099 10.8013 28.3276C10.3973 28.0399 10.0736 27.6774 9.83008 27.2402C9.58659 26.7975 9.46484 26.2718 9.46484 25.6631H12.063C12.063 25.9453 12.1349 26.1999 12.2788 26.4268C12.4282 26.6481 12.6302 26.8252 12.8848 26.958C13.1449 27.0853 13.4271 27.1489 13.7314 27.1489C14.0967 27.1489 14.4066 27.0825 14.6611 26.9497C14.9212 26.8114 15.1177 26.6232 15.2505 26.3853C15.3888 26.1473 15.458 25.8734 15.458 25.5635C15.458 25.1429 15.3833 24.8053 15.2339 24.5508C15.09 24.2907 14.8797 24.1025 14.603 23.9863C14.3263 23.8646 13.9943 23.8037 13.6069 23.8037H12.2871Z" fill="#17CFB0"/>
</svg>
