<?xml version="1.0" encoding="UTF-8" standalone="no"?>
<!DOCTYPE svg PUBLIC "-//W3C//DTD SVG 1.1//EN" "http://www.w3.org/Graphics/SVG/1.1/DTD/svg11.dtd">
<!-- Created with Vectornator (http://vectornator.io/) -->
<svg height="100%" stroke-miterlimit="10" style="fill-rule:nonzero;clip-rule:evenodd;stroke-linecap:round;stroke-linejoin:round;" version="1.1" viewBox="0 0 48 48" width="100%" xml:space="preserve" xmlns="http://www.w3.org/2000/svg" xmlns:xlink="http://www.w3.org/1999/xlink">
<defs/>
<g id="Untitled">
<path d="M23.5 0L23.5 0C36.4787 2.05729e-06 47 10.5213 47 23.5L47 23.5C47 36.4787 36.4787 47 23.5 47L23.5 47C10.5213 47 2.45216e-06 36.4787 4.92437e-07 23.5L4.92437e-07 23.5C2.30351e-06 10.5213 10.5213 9.77681e-07 23.5 0Z" fill="#000000" fill-rule="nonzero" opacity="1" stroke="none"/>
<path d="M23.4697 23.468L23.4697 17.2439L17.2456 23.468L23.4697 29.6922L23.4697 23.468ZM23.4697 9.7749L9.77659 23.468L23.4697 37.1612L23.4697 23.468L23.4697 9.7749Z" fill="#17cfb0" fill-rule="evenodd" opacity="1" stroke="none"/>
<path d="M23.4697 23.468L23.4697 29.6921L29.6939 23.468L23.4697 17.2438L23.4697 23.468ZM23.4697 37.1611L37.1629 23.468L23.4697 9.77486L23.4697 23.468L23.4697 37.1611Z" fill="#4c6aff" fill-rule="evenodd" opacity="1" stroke="none"/>
</g>
</svg>
